HIERARCHY
ROOT Hips
{
	OFFSET	0.00	0.00	0.00
	CHANNELS 6 Xposition Yposition Zposition Zrotation Xrotation Yrotation
	JOINT Spine
	{
		OFFSET	 0.00	0.01	 0.00
		CHANNELS 3 Zrotation Xrotation Yrotation
		JOINT Spine1
		{
			OFFSET	 0.00	 2.45913012437421	 0.00
			CHANNELS 3 Zrotation Xrotation Yrotation
            JOINT Neck
            {
                OFFSET	 0.00	 2.48462964506057	 0.00
                CHANNELS 3 Zrotation Xrotation Yrotation
                JOINT Head
                {
                    OFFSET	 0.00	 0.927524780924562	 0.00
                    CHANNELS 3 Zrotation Xrotation Yrotation
                    End Site 
                    {
                        OFFSET	 0.00	 1.14999962169752	 0.00
                    }
                }
            }
			JOINT LeftShoulder
			{
				OFFSET	 0.00	 2.48462964506057	 0.00
				CHANNELS 3 Zrotation Xrotation Yrotation
				JOINT LeftUpArm
				{
					OFFSET	 0.00	 1.24881979654096	 0.00
					CHANNELS 3 Zrotation Xrotation Yrotation
					JOINT LeftForeArm
					{
						OFFSET	 0.00	2.59758046908119	 0.00
						CHANNELS 3 Zrotation Xrotation Yrotation
						JOINT LeftHand
						{
							OFFSET	 0.00	2.45542024364365	 0.00
							CHANNELS 3 Zrotation Xrotation Yrotation
							JOINT LeftHandThumb 
							{
								OFFSET	 0.00	0.00	 0.00
								CHANNELS 3 Zrotation Xrotation Yrotation
								End Site
								{
									OFFSET	 0.00	0.00	1.00000003353624
								}
							}
							JOINT L_Wrist_End 
							{
								OFFSET	 0.00	0.99999967115358	 0.00
								CHANNELS 3 Zrotation Xrotation Yrotation
								End Site 
								{
									OFFSET	 0.00	 0.00	 0.00
								}
							}
						}
					}
				}
			}
			JOINT RightShoulder
			{
				OFFSET	 0.00	 2.48462964506057	 0.00
				CHANNELS 3 Zrotation Xrotation Yrotation
				JOINT RightUpArm
				{
					OFFSET	 0.00	 1.24881979654096	 0.00
					CHANNELS 3 Zrotation Xrotation Yrotation
					JOINT RightForeArm
					{
						OFFSET	 0.00	2.59758046908119	 0.00
						CHANNELS 3 Zrotation Xrotation Yrotation
						JOINT RightHand
						{
							OFFSET	 0.00	2.45542024364365	 0.00
							CHANNELS 3 Zrotation Xrotation Yrotation
							JOINT RightHandThumb 
							{
								OFFSET	 0.00	0.00	 0.00
								CHANNELS 3 Zrotation Xrotation Yrotation
								End Site
								{
									OFFSET	 0.00	0.00	1.00000003353624
								}
							}
							JOINT R_Wrist_End 
							{
								OFFSET	 0.00	0.99999967115358	 0.00
								CHANNELS 3 Zrotation Xrotation Yrotation
								End Site 
								{
									OFFSET	 0.00	 0.00	 0.00
								}
							}
						}
					}
				}
			}
		}
	}
	JOINT LeftUpLeg
	{
		OFFSET	 1.2719394002717	 0.00	 0.00
		CHANNELS 3 Zrotation Xrotation Yrotation
		JOINT LeftLowLeg
		{
			OFFSET	 0.00	-4.3429100912261	 0.00
			CHANNELS 3 Zrotation Xrotation Yrotation
			JOINT LeftFoot
			{
				OFFSET	 0.00	-4.48767017425826	 0.00
				CHANNELS 3 Zrotation Xrotation Yrotation
				JOINT LeftToeBase
                {
                    OFFSET	 0.00	0.00	 1.51507020887566
                    CHANNELS 3 Zrotation Xrotation Yrotation
                    End Site 
                    {
                        OFFSET	 0.00	0.00	 0.75000010571191
                    }
                }
			}
		}
	}
	JOINT RightUpLeg
	{
		OFFSET	 -1.2719393604653	 0.00	 0.00
		CHANNELS 3 Zrotation Xrotation Yrotation
		JOINT RightLowLeg
		{
			OFFSET	 0.00	-4.3429100912261	 0.00
			CHANNELS 3 Zrotation Xrotation Yrotation
			JOINT RightFoot
			{
				OFFSET	 0.00	-4.48767017425826	 0.00
				CHANNELS 3 Zrotation Xrotation Yrotation
				JOINT RightToeBase
                {
                    OFFSET	 0.00	0.00	 1.51507020887566
                    CHANNELS 3 Zrotation Xrotation Yrotation
                    End Site 
                    {
                        OFFSET	 0.00	0.00	 0.749999965609858
                    }
                }   
			}
		}
	}
}
MOTION 
Frames:	11 
Frame Time: 0.02 
  2.1327099609375 0.43276500701904297 7.090850219726563 -178.608 -76.5026 190.279 -177.279 -15.8603 -176.777 -4.86745 12.4438 8.03992 77.969 49.1547 327.948 -166.557 -80.6827 913.287 -111.5563 10.8124 366.519 -44.2807 24.7484 14.6311 0.0 112.644 0.0 -25.9239 50.3077 -89.311 0.0 0.0 0.0 0.0 0.0 0.0 113.9156 0.3619 -356.884 47.102 7.97731 -387.995 0.0 131.139 0.0 -40.0299 -47.738 13.0918 0.0 0.0 0.0 0.0 0.0 0.0 172.635 50.3557 -166.434 0.0 69.7814 0.0 -16.6919 4.5670004 14.1989 0.0 -23.264679 0.0 176.875 52.5509 -182.861 0.0 69.0239 0.0 22.7232 4.4444 -11.6311 0.0 -28.737999 0.0 
  2.133280029296875 0.4330910110473633 7.0894097900390625 -178.496 -76.4939 190.347 -177.337 -15.8692 -176.781 -4.96643 12.6562 8.12342 77.2316 48.2901 328.289 -169.677 -80.9266 910.171 -111.8006 10.9724 366.583 -44.0019 24.7762 14.2165 0.0 113.06 0.0 -27.1145 48.8939 -85.2139 0.0 0.0 0.0 0.0 0.0 0.0 114.037796 0.432439 -356.635 46.9234 7.5524 -387.821 0.0 131.188 0.0 -39.5638 -48.1207 14.1476 0.0 0.0 0.0 0.0 0.0 0.0 172.809 50.3817 -166.654 0.0 69.7817 0.0 -16.7748 4.5312004 14.2653 0.0 -23.27391 0.0 176.967 52.5718 -182.94 0.0 69.0594 0.0 22.6988 4.4505997 -11.6349 0.0 -28.803799 0.0 
  2.1331199645996093 0.43410301208496094 7.089320068359375 -178.508 -76.4898 190.313 -177.427 -15.8556 -176.796 -5.11594 12.8173 8.12712 76.7459 47.8543 328.621 -171.776 -81.1187 907.986 -111.8742 11.0556 366.737 -43.8145 24.9646 13.9634 0.0 113.214 0.0 -30.5579 49.1083 -86.0594 0.0 0.0 0.0 0.0 0.0 0.0 114.0469 0.55363 -356.187 46.9859 7.06833 -387.353 0.0 131.059 0.0 -37.6909 -48.8735 15.4562 0.0 0.0 0.0 0.0 0.0 0.0 172.898 50.3936 -166.804 0.0 69.7739 0.0 -16.7733 4.5325003 14.317 0.0 -23.24947 0.0 176.989 52.5694 -182.974 0.0 69.0572 0.0 22.6926 4.4617004 -11.6371 0.0 -28.8004 0.0 
  2.133240051269531 0.43475101470947264 7.090759887695312 -178.599 -76.4746 190.239 -177.532 -15.7836 -176.813 -5.28645 13.0729 8.1459 76.6074 47.483 328.674 -173.68 -81.2688 906.111 -111.933395 11.22 366.869 -43.5427 25.0952 14.1423 0.0 113.751 0.0 -34.2216 45.1699 -77.9447 0.0 0.0 0.0 0.0 0.0 0.0 114.0121 0.62785 -355.731 47.1574 6.67154 -386.313 0.0 130.76 0.0 -33.8525 -50.0122 17.452 0.0 0.0 0.0 0.0 0.0 0.0 172.926 50.3728 -166.888 0.0 69.7606 0.0 -16.8321 4.528 14.3482 0.0 -23.22534 0.0 176.955 52.5271 -182.95 0.0 69.0126 0.0 22.6806 4.4762 -11.6448 0.0 -28.7911 0.0 
  2.132760009765625 0.43498199462890624 7.092150268554687 -178.637 -76.4601 190.208 -177.54 -15.6905 -176.817 -5.29857 13.2925 8.16134 76.4749 47.3561 328.797 -174.54 -81.4217 905.192 -112.0002 11.383 366.966 -43.318 25.271 14.2495 0.0 113.867 0.0 -34.9093 40.6968 -74.1674 0.0 0.0 0.0 0.0 0.0 0.0 114.0281 0.621227 -355.585 47.208 6.64193 -384.724 0.0 130.408 0.0 -28.7602 -51.2319 19.6437 0.0 0.0 0.0 0.0 0.0 0.0 172.942 50.3422 -166.926 0.0 69.7346 0.0 -16.8763 4.5214996 14.3722 0.0 -23.23293 0.0 176.927 52.4923 -182.924 0.0 68.9856 0.0 22.6752 4.4854 -11.6557 0.0 -28.812 0.0 
  2.132259979248047 0.434921989440918 7.09364990234375 -178.677 -76.4261 190.194 -177.514 -15.5634 -176.819 -5.25888 13.5151 8.14245 76.615 47.5161 328.76 -174.054 -81.5013 905.657 -112.0342 11.5041 367.179 -43.0799 25.4996 13.8608 0.0 113.687 0.0 -34.2073 38.2189 -71.4944 0.0 0.0 0.0 0.0 0.0 0.0 114.1187 0.656019 -355.97 47.1342 7.0589 -382.662 0.0 130.064 0.0 -23.5513 -52.3572 21.2053 0.0 0.0 0.0 0.0 0.0 0.0 172.938 50.2827 -166.935 0.0 69.7092 0.0 -16.9034 4.5072002 14.3756 0.0 -23.18614 0.0 176.893 52.4335 -182.889 0.0 68.9514 0.0 22.709 4.4750996 -11.6414 0.0 -28.7899 0.0 
  2.13218994140625 0.43560199737548827 7.094940185546875 -178.551 -76.5117 190.338 -177.504 -16.1885 -176.812 -5.29364 11.9489 7.83593 78.5863 48.5052 327.42 -169.977 -81.1006 909.95 -112.3417 11.2832 368.076 -42.5053 25.5117 13.2292 0.0 113.327 0.0 -31.4528 37.9418 -70.8369 0.0 0.0 0.0 0.0 0.0 0.0 114.645004 0.712804 -357.306 46.7289 7.39939 -380.198 0.0 129.73 0.0 -18.2875 -53.7345 23.3012 0.0 0.0 0.0 0.0 0.0 0.0 172.922 50.3501 -166.899 0.0 69.6766 0.0 -16.8878 4.531 14.3877 0.0 -23.20972 0.0 176.895 52.5122 -182.883 0.0 68.9281 0.0 22.6578 4.4887 -11.6463 0.0 -28.8055 0.0 
  2.131959991455078 0.43639801025390623 7.0946197509765625 -178.61 -76.3768 190.303 -177.764 -15.9876 -176.876 -5.74902 12.518 7.60708 78.697 49.0756 327.613 -168.656 -81.1971 911.256 -111.9281 11.0901 367.81 -42.4497 25.9907 13.3126 0.0 113.0 0.0 -28.2879 38.8625 -72.6453 0.0 0.0 0.0 0.0 0.0 0.0 114.7108 1.11995 -357.302 46.9575 7.54433 -377.971 0.0 129.395 0.0 -13.0293 -54.8183 26.9826 0.0 0.0 0.0 0.0 0.0 0.0 172.919 50.2106 -166.88 0.0 69.6691 0.0 -16.8902 4.5371 14.3865 0.0 -23.23354 0.0 176.91 52.3856 -182.902 0.0 68.9274 0.0 22.6615 4.5084 -11.6223 0.0 -28.797901 0.0 
  2.131730041503906 0.4367319869995117 7.09333984375 -178.593 -76.4457 190.333 -177.46 -16.0114 -176.813 -5.09972 12.2098 7.84596 79.5385 49.3394 326.786 -166.019 -80.8269 914.042 -112.3938 11.3927 368.094 -42.0405 26.1752 13.5653 0.0 112.831 0.0 -29.22 39.1807 -72.075 0.0 0.0 0.0 0.0 0.0 0.0 114.4783 0.865635 -356.857 47.0978 7.04249 -376.017 0.0 129.022 0.0 -7.85897 -55.3652 32.0127 0.0 0.0 0.0 0.0 0.0 0.0 172.869 50.2951 -166.833 0.0 69.6961 0.0 -16.8723 4.5367002 14.3804 0.0 -23.19133 0.0 176.916 52.4672 -182.939 0.0 68.9377 0.0 22.6358 4.514 -11.5971 0.0 -28.808601 0.0 
  2.130260009765625 0.43874298095703124 7.088740234375 -178.607 -76.3503 190.323 -177.04 -16.145 -176.75 -4.29281 12.1006 7.86345 79.8115 49.6624 326.457 -163.574 -80.454 916.61 -112.7435 11.4302 368.311 -41.6945 26.5254 13.8368 0.0 112.917 0.0 -30.0246 38.8611 -68.9945 0.0 0.0 0.0 0.0 0.0 0.0 114.1761 0.67711 -357.047 47.1881 7.22703 -373.859 0.0 128.676 0.0 -3.23612 -55.3103 37.5793 0.0 0.0 0.0 0.0 0.0 0.0 172.832 50.2595 -166.782 0.0 69.763 0.0 -16.8603 4.5573997 14.3607 0.0 -23.272621 0.0 176.939 52.4383 -182.976 0.0 69.0094 0.0 22.6281 4.5099 -11.5839 0.0 -28.8213 0.0 
  2.1311900329589846 0.43820598602294925 7.08844970703125 -178.619 -76.2972 190.329 -177.812 -15.3535 -176.91 -5.63125 13.7647 7.54505 79.1696 50.0354 327.462 -165.165 -80.7483 914.914 -111.7891 11.2888 367.279 -41.6652 26.9325 14.3612 0.0 112.975 0.0 -31.7944 39.0186 -66.8141 0.0 0.0 0.0 0.0 0.0 0.0 114.740295 1.2362 -357.364 47.1087 8.19341 -371.761 0.0 128.593 0.0 -0.535955 -55.0809 41.3324 0.0 0.0 0.0 0.0 0.0 0.0 172.831 50.2047 -166.76 0.0 69.7727 0.0 -16.8537 4.5526 14.3595 0.0 -23.26568 0.0 176.99 52.3899 -183.042 0.0 69.0211 0.0 22.6184 4.5127 -11.5364 0.0 -28.7987 0.0 
